<svg width="32" height="32" viewBox="0 0 32 32" fill="none" xmlns="http://www.w3.org/2000/svg">
<rect x="2" y="6" width="28" height="20.036" rx="1.7559" fill="url(#paint0_linear_6990_5054)"/>
<rect x="2" y="6" width="28" height="20.036" rx="1.7559" fill="url(#paint1_linear_6990_5054)"/>
<rect x="2" y="6" width="28" height="20.036" rx="1.7559" fill="url(#paint2_linear_6990_5054)"/>
<rect x="2" y="6" width="28" height="20.036" rx="1.7559" fill="url(#paint3_radial_6990_5054)"/>
<rect x="2" y="6" width="28" height="20.036" rx="1.7559" fill="url(#paint4_radial_6990_5054)"/>
<rect x="2" y="6" width="28" height="20.036" rx="1.7559" fill="url(#paint5_radial_6990_5054)"/>
<path d="M2 24.2773C2 24.0136 2.13596 23.7685 2.35971 23.6289L15.7784 15.2563C15.9091 15.1747 16.0751 15.1748 16.2057 15.2566L29.6691 23.6799C29.875 23.8087 30 24.0345 30 24.2773C30 25.2486 29.2112 26.0359 28.2382 26.0359H3.7618C2.78879 26.0359 2 25.2486 2 24.2773Z" fill="url(#paint6_linear_6990_5054)"/>
<path d="M2 24.2773C2 24.0136 2.13596 23.7685 2.35971 23.6289L15.7784 15.2563C15.9091 15.1747 16.0751 15.1748 16.2057 15.2566L29.6691 23.6799C29.875 23.8087 30 24.0345 30 24.2773C30 25.2486 29.2112 26.0359 28.2382 26.0359H3.7618C2.78879 26.0359 2 25.2486 2 24.2773Z" fill="url(#paint7_linear_6990_5054)"/>
<path d="M2 24.2773C2 24.0136 2.13596 23.7685 2.35971 23.6289L15.7784 15.2563C15.9091 15.1747 16.0751 15.1748 16.2057 15.2566L29.6691 23.6799C29.875 23.8087 30 24.0345 30 24.2773C30 25.2486 29.2112 26.0359 28.2382 26.0359H3.7618C2.78879 26.0359 2 25.2486 2 24.2773Z" fill="url(#paint8_linear_6990_5054)"/>
<path d="M2 24.2773C2 24.0136 2.13596 23.7685 2.35971 23.6289L15.7784 15.2563C15.9091 15.1747 16.0751 15.1748 16.2057 15.2566L29.6691 23.6799C29.875 23.8087 30 24.0345 30 24.2773C30 25.2486 29.2112 26.0359 28.2382 26.0359H3.7618C2.78879 26.0359 2 25.2486 2 24.2773Z" fill="url(#paint9_linear_6990_5054)"/>
<path d="M2 24.2773C2 24.0136 2.13596 23.7685 2.35971 23.6289L15.7784 15.2563C15.9091 15.1747 16.0751 15.1748 16.2057 15.2566L29.6691 23.6799C29.875 23.8087 30 24.0345 30 24.2773C30 25.2486 29.2112 26.0359 28.2382 26.0359H3.7618C2.78879 26.0359 2 25.2486 2 24.2773Z" fill="url(#paint10_radial_6990_5054)"/>
<path d="M2 24.2773C2 24.0136 2.13596 23.7685 2.35971 23.6289L15.7784 15.2563C15.9091 15.1747 16.0751 15.1748 16.2057 15.2566L29.6691 23.6799C29.875 23.8087 30 24.0345 30 24.2773C30 25.2486 29.2112 26.0359 28.2382 26.0359H3.7618C2.78879 26.0359 2 25.2486 2 24.2773Z" fill="url(#paint11_linear_6990_5054)"/>
<path d="M2 7.75864C2 8.02237 2.13596 8.26747 2.35971 8.40707L15.7784 16.7797C15.9091 16.8612 16.0751 16.8611 16.2057 16.7794L29.6691 8.35603C29.875 8.22722 30 8.00149 30 7.75864C30 6.78738 29.2112 6 28.2382 6H3.7618C2.78879 6 2 6.78738 2 7.75864Z" fill="url(#paint12_linear_6990_5054)"/>
<path d="M2 7.75864C2 8.02237 2.13596 8.26747 2.35971 8.40707L15.7784 16.7797C15.9091 16.8612 16.0751 16.8611 16.2057 16.7794L29.6691 8.35603C29.875 8.22722 30 8.00149 30 7.75864C30 6.78738 29.2112 6 28.2382 6H3.7618C2.78879 6 2 6.78738 2 7.75864Z" fill="url(#paint13_linear_6990_5054)"/>
<path d="M2 7.75864C2 8.02237 2.13596 8.26747 2.35971 8.40707L15.7784 16.7797C15.9091 16.8612 16.0751 16.8611 16.2057 16.7794L29.6691 8.35603C29.875 8.22722 30 8.00149 30 7.75864C30 6.78738 29.2112 6 28.2382 6H3.7618C2.78879 6 2 6.78738 2 7.75864Z" fill="url(#paint14_linear_6990_5054)"/>
<path d="M2 7.75864C2 8.02237 2.13596 8.26747 2.35971 8.40707L15.7784 16.7797C15.9091 16.8612 16.0751 16.8611 16.2057 16.7794L29.6691 8.35603C29.875 8.22722 30 8.00149 30 7.75864C30 6.78738 29.2112 6 28.2382 6H3.7618C2.78879 6 2 6.78738 2 7.75864Z" fill="url(#paint15_radial_6990_5054)"/>
<path d="M2 7.75864C2 8.02237 2.13596 8.26747 2.35971 8.40707L15.7784 16.7797C15.9091 16.8612 16.0751 16.8611 16.2057 16.7794L29.6691 8.35603C29.875 8.22722 30 8.00149 30 7.75864C30 6.78738 29.2112 6 28.2382 6H3.7618C2.78879 6 2 6.78738 2 7.75864Z" fill="url(#paint16_linear_6990_5054)"/>
<path d="M2 7.75864C2 8.02237 2.13596 8.26747 2.35971 8.40707L15.7784 16.7797C15.9091 16.8612 16.0751 16.8611 16.2057 16.7794L29.6691 8.35603C29.875 8.22722 30 8.00149 30 7.75864C30 6.78738 29.2112 6 28.2382 6H3.7618C2.78879 6 2 6.78738 2 7.75864Z" fill="url(#paint17_radial_6990_5054)"/>
<path d="M2 7.75864C2 8.02237 2.13596 8.26747 2.35971 8.40707L15.7784 16.7797C15.9091 16.8612 16.0751 16.8611 16.2057 16.7794L29.6691 8.35603C29.875 8.22722 30 8.00149 30 7.75864C30 6.78738 29.2112 6 28.2382 6H3.7618C2.78879 6 2 6.78738 2 7.75864Z" fill="url(#paint18_linear_6990_5054)"/>
<rect x="2" y="6" width="28" height="20.036" rx="1.7559" fill="url(#paint19_radial_6990_5054)"/>
<path d="M15.4148 22.7167C15.7663 22.9173 16.193 22.9058 16.5431 22.7029C18.5955 21.5135 22.0716 18.8518 23.4471 15.4071C25.4918 10.8653 20.6909 7.2398 17.3729 9.84741C17.0432 10.1065 16.6327 10.4012 16.3357 10.6835C16.1759 10.8353 15.8969 10.8508 15.7324 10.7041C15.338 10.3523 14.7536 9.91689 14.3732 9.65951C11.5445 7.74571 6.39756 10.2684 8.59305 15.6525C9.3883 18.0421 13.1444 21.4212 15.4148 22.7167Z" fill="url(#paint20_radial_6990_5054)"/>
<path d="M15.4148 22.7167C15.7663 22.9173 16.193 22.9058 16.5431 22.7029C18.5955 21.5135 22.0716 18.8518 23.4471 15.4071C25.4918 10.8653 20.6909 7.2398 17.3729 9.84741C17.0432 10.1065 16.6327 10.4012 16.3357 10.6835C16.1759 10.8353 15.8969 10.8508 15.7324 10.7041C15.338 10.3523 14.7536 9.91689 14.3732 9.65951C11.5445 7.74571 6.39756 10.2684 8.59305 15.6525C9.3883 18.0421 13.1444 21.4212 15.4148 22.7167Z" fill="url(#paint21_radial_6990_5054)"/>
<path d="M15.4148 22.7167C15.7663 22.9173 16.193 22.9058 16.5431 22.7029C18.5955 21.5135 22.0716 18.8518 23.4471 15.4071C25.4918 10.8653 20.6909 7.2398 17.3729 9.84741C17.0432 10.1065 16.6327 10.4012 16.3357 10.6835C16.1759 10.8353 15.8969 10.8508 15.7324 10.7041C15.338 10.3523 14.7536 9.91689 14.3732 9.65951C11.5445 7.74571 6.39756 10.2684 8.59305 15.6525C9.3883 18.0421 13.1444 21.4212 15.4148 22.7167Z" fill="url(#paint22_radial_6990_5054)"/>
<path d="M15.4148 22.7167C15.7663 22.9173 16.193 22.9058 16.5431 22.7029C18.5955 21.5135 22.0716 18.8518 23.4471 15.4071C25.4918 10.8653 20.6909 7.2398 17.3729 9.84741C17.0432 10.1065 16.6327 10.4012 16.3357 10.6835C16.1759 10.8353 15.8969 10.8508 15.7324 10.7041C15.338 10.3523 14.7536 9.91689 14.3732 9.65951C11.5445 7.74571 6.39756 10.2684 8.59305 15.6525C9.3883 18.0421 13.1444 21.4212 15.4148 22.7167Z" fill="url(#paint23_radial_6990_5054)"/>
<path d="M15.4148 22.7167C15.7663 22.9173 16.193 22.9058 16.5431 22.7029C18.5955 21.5135 22.0716 18.8518 23.4471 15.4071C25.4918 10.8653 20.6909 7.2398 17.3729 9.84741C17.0432 10.1065 16.6327 10.4012 16.3357 10.6835C16.1759 10.8353 15.8969 10.8508 15.7324 10.7041C15.338 10.3523 14.7536 9.91689 14.3732 9.65951C11.5445 7.74571 6.39756 10.2684 8.59305 15.6525C9.3883 18.0421 13.1444 21.4212 15.4148 22.7167Z" fill="url(#paint24_linear_6990_5054)"/>
<path d="M15.4148 22.7167C15.7663 22.9173 16.193 22.9058 16.5431 22.7029C18.5955 21.5135 22.0716 18.8518 23.4471 15.4071C25.4918 10.8653 20.6909 7.2398 17.3729 9.84741C17.0432 10.1065 16.6327 10.4012 16.3357 10.6835C16.1759 10.8353 15.8969 10.8508 15.7324 10.7041C15.338 10.3523 14.7536 9.91689 14.3732 9.65951C11.5445 7.74571 6.39756 10.2684 8.59305 15.6525C9.3883 18.0421 13.1444 21.4212 15.4148 22.7167Z" fill="url(#paint25_linear_6990_5054)"/>
<path d="M15.4148 22.7167C15.7663 22.9173 16.193 22.9058 16.5431 22.7029C18.5955 21.5135 22.0716 18.8518 23.4471 15.4071C25.4918 10.8653 20.6909 7.2398 17.3729 9.84741C17.0432 10.1065 16.6327 10.4012 16.3357 10.6835C16.1759 10.8353 15.8969 10.8508 15.7324 10.7041C15.338 10.3523 14.7536 9.91689 14.3732 9.65951C11.5445 7.74571 6.39756 10.2684 8.59305 15.6525C9.3883 18.0421 13.1444 21.4212 15.4148 22.7167Z" fill="url(#paint26_radial_6990_5054)"/>
<path d="M15.4148 22.7167C15.7663 22.9173 16.193 22.9058 16.5431 22.7029C18.5955 21.5135 22.0716 18.8518 23.4471 15.4071C25.4918 10.8653 20.6909 7.2398 17.3729 9.84741C17.0432 10.1065 16.6327 10.4012 16.3357 10.6835C16.1759 10.8353 15.8969 10.8508 15.7324 10.7041C15.338 10.3523 14.7536 9.91689 14.3732 9.65951C11.5445 7.74571 6.39756 10.2684 8.59305 15.6525C9.3883 18.0421 13.1444 21.4212 15.4148 22.7167Z" fill="url(#paint27_radial_6990_5054)"/>
<path d="M15.4148 22.7167C15.7663 22.9173 16.193 22.9058 16.5431 22.7029C18.5955 21.5135 22.0716 18.8518 23.4471 15.4071C25.4918 10.8653 20.6909 7.2398 17.3729 9.84741C17.0432 10.1065 16.6327 10.4012 16.3357 10.6835C16.1759 10.8353 15.8969 10.8508 15.7324 10.7041C15.338 10.3523 14.7536 9.91689 14.3732 9.65951C11.5445 7.74571 6.39756 10.2684 8.59305 15.6525C9.3883 18.0421 13.1444 21.4212 15.4148 22.7167Z" fill="url(#paint28_radial_6990_5054)"/>
<path d="M15.4148 22.7167C15.7663 22.9173 16.193 22.9058 16.5431 22.7029C18.5955 21.5135 22.0716 18.8518 23.4471 15.4071C25.4918 10.8653 20.6909 7.2398 17.3729 9.84741C17.0432 10.1065 16.6327 10.4012 16.3357 10.6835C16.1759 10.8353 15.8969 10.8508 15.7324 10.7041C15.338 10.3523 14.7536 9.91689 14.3732 9.65951C11.5445 7.74571 6.39756 10.2684 8.59305 15.6525C9.3883 18.0421 13.1444 21.4212 15.4148 22.7167Z" fill="url(#paint29_radial_6990_5054)"/>
<path d="M15.4148 22.7167C15.7663 22.9173 16.193 22.9058 16.5431 22.7029C18.5955 21.5135 22.0716 18.8518 23.4471 15.4071C25.4918 10.8653 20.6909 7.2398 17.3729 9.84741C17.0432 10.1065 16.6327 10.4012 16.3357 10.6835C16.1759 10.8353 15.8969 10.8508 15.7324 10.7041C15.338 10.3523 14.7536 9.91689 14.3732 9.65951C11.5445 7.74571 6.39756 10.2684 8.59305 15.6525C9.3883 18.0421 13.1444 21.4212 15.4148 22.7167Z" fill="url(#paint30_radial_6990_5054)"/>
<path d="M15.4148 22.7167C15.7663 22.9173 16.193 22.9058 16.5431 22.7029C18.5955 21.5135 22.0716 18.8518 23.4471 15.4071C25.4918 10.8653 20.6909 7.2398 17.3729 9.84741C17.0432 10.1065 16.6327 10.4012 16.3357 10.6835C16.1759 10.8353 15.8969 10.8508 15.7324 10.7041C15.338 10.3523 14.7536 9.91689 14.3732 9.65951C11.5445 7.74571 6.39756 10.2684 8.59305 15.6525C9.3883 18.0421 13.1444 21.4212 15.4148 22.7167Z" fill="url(#paint31_radial_6990_5054)"/>
<path d="M15.4148 22.7167C15.7663 22.9173 16.193 22.9058 16.5431 22.7029C18.5955 21.5135 22.0716 18.8518 23.4471 15.4071C25.4918 10.8653 20.6909 7.2398 17.3729 9.84741C17.0432 10.1065 16.6327 10.4012 16.3357 10.6835C16.1759 10.8353 15.8969 10.8508 15.7324 10.7041C15.338 10.3523 14.7536 9.91689 14.3732 9.65951C11.5445 7.74571 6.39756 10.2684 8.59305 15.6525C9.3883 18.0421 13.1444 21.4212 15.4148 22.7167Z" fill="url(#paint32_radial_6990_5054)"/>
<path d="M15.4148 22.7167C15.7663 22.9173 16.193 22.9058 16.5431 22.7029C18.5955 21.5135 22.0716 18.8518 23.4471 15.4071C25.4918 10.8653 20.6909 7.2398 17.3729 9.84741C17.0432 10.1065 16.6327 10.4012 16.3357 10.6835C16.1759 10.8353 15.8969 10.8508 15.7324 10.7041C15.338 10.3523 14.7536 9.91689 14.3732 9.65951C11.5445 7.74571 6.39756 10.2684 8.59305 15.6525C9.3883 18.0421 13.1444 21.4212 15.4148 22.7167Z" fill="url(#paint33_radial_6990_5054)"/>
<defs>
<linearGradient id="paint0_linear_6990_5054" x1="4.01348" y1="17.1799" x2="30" y2="16.9908" gradientUnits="userSpaceOnUse">
<stop stop-color="#DFD0E6"/>
<stop offset="1" stop-color="#EEE5F8"/>
</linearGradient>
<linearGradient id="paint1_linear_6990_5054" x1="2" y1="17.1184" x2="5.05869" y2="17.1184" gradientUnits="userSpaceOnUse">
<stop stop-color="#D6BABD"/>
<stop offset="1" stop-color="#DCC9DD" stop-opacity="0"/>
</linearGradient>
<linearGradient id="paint2_linear_6990_5054" x1="2" y1="17.1184" x2="10.3125" y2="17.1184" gradientUnits="userSpaceOnUse">
<stop stop-color="#D6BABD" stop-opacity="0.6"/>
<stop offset="1" stop-color="#DCC9DD" stop-opacity="0"/>
</linearGradient>
<radialGradient id="paint3_radial_6990_5054" cx="0" cy="0" r="1" gradientTransform="matrix(-2.28197 0.817082 -17.5327 -12.5172 15.0938 16.018)" gradientUnits="userSpaceOnUse">
<stop stop-color="#7E5491" stop-opacity="0.9"/>
<stop offset="1" stop-color="#7E5490" stop-opacity="0"/>
</radialGradient>
<radialGradient id="paint4_radial_6990_5054" cx="0" cy="0" r="1" gradientUnits="userSpaceOnUse" gradientTransform="translate(29.0312 24.9375) rotate(126.87) scale(3.28124 15.5732)">
<stop offset="0.260951" stop-color="#EEEBEF"/>
<stop offset="0.779047" stop-color="#EEEBEF" stop-opacity="0"/>
</radialGradient>
<radialGradient id="paint5_radial_6990_5054" cx="0" cy="0" r="1" gradientUnits="userSpaceOnUse" gradientTransform="translate(15.6194 15.8217) rotate(52.2651) scale(2.46725 41.5047)">
<stop offset="0.332083" stop-color="#BCA0C2" stop-opacity="0.8"/>
<stop offset="1" stop-color="#BCA0C2" stop-opacity="0"/>
</radialGradient>
<linearGradient id="paint6_linear_6990_5054" x1="16" y1="27.7946" x2="16" y2="16.9287" gradientUnits="userSpaceOnUse">
<stop stop-color="#DDC5F1"/>
<stop offset="1" stop-color="#E6DAF1"/>
</linearGradient>
<linearGradient id="paint7_linear_6990_5054" x1="7.4287" y1="20.1447" x2="7.88696" y2="20.8333" gradientUnits="userSpaceOnUse">
<stop offset="0.0734082" stop-color="#DDC2C8"/>
<stop offset="1" stop-color="#DFCDDA" stop-opacity="0"/>
</linearGradient>
<linearGradient id="paint8_linear_6990_5054" x1="22.6251" y1="19.1922" x2="22.3371" y2="19.6422" gradientUnits="userSpaceOnUse">
<stop offset="0.139796" stop-color="#F8F3FD"/>
<stop offset="1" stop-color="#F1EAF9" stop-opacity="0"/>
</linearGradient>
<linearGradient id="paint9_linear_6990_5054" x1="16" y1="26.0359" x2="16" y2="24.5937" gradientUnits="userSpaceOnUse">
<stop stop-color="#D3ADEF"/>
<stop offset="1" stop-color="#D3ADEF" stop-opacity="0"/>
</linearGradient>
<radialGradient id="paint10_radial_6990_5054" cx="0" cy="0" r="1" gradientUnits="userSpaceOnUse" gradientTransform="translate(16 25.75) rotate(-90) scale(17.9375)">
<stop offset="0.712544" stop-color="#D3ADEF" stop-opacity="0"/>
<stop offset="0.872822" stop-color="#D3ADEF"/>
</radialGradient>
<linearGradient id="paint11_linear_6990_5054" x1="2" y1="20.0202" x2="10.3125" y2="20.0202" gradientUnits="userSpaceOnUse">
<stop stop-color="#D6BABD" stop-opacity="0.5"/>
<stop offset="1" stop-color="#DCC9DD" stop-opacity="0"/>
</linearGradient>
<linearGradient id="paint12_linear_6990_5054" x1="16" y1="6" x2="16" y2="16.8407" gradientUnits="userSpaceOnUse">
<stop stop-color="#E9E4E9"/>
<stop offset="1" stop-color="#E7DCF0"/>
</linearGradient>
<linearGradient id="paint13_linear_6990_5054" x1="9.76796" y1="12.8805" x2="13.397" y2="6.35789" gradientUnits="userSpaceOnUse">
<stop stop-color="#E1D5E7"/>
<stop offset="1" stop-color="#E1D5E7" stop-opacity="0"/>
</linearGradient>
<linearGradient id="paint14_linear_6990_5054" x1="2" y1="7.64547" x2="4.95166" y2="7.64547" gradientUnits="userSpaceOnUse">
<stop stop-color="#E1C1BC"/>
<stop offset="1" stop-color="#E1C1BC" stop-opacity="0"/>
<stop offset="1" stop-color="#E9D1CD" stop-opacity="0"/>
</linearGradient>
<radialGradient id="paint15_radial_6990_5054" cx="0" cy="0" r="1" gradientTransform="matrix(-4.60225 -4.10273 18.2119 -20.3561 27.5348 10.1027)" gradientUnits="userSpaceOnUse">
<stop stop-color="#FBF9FE"/>
<stop offset="1" stop-color="#F0ECF1" stop-opacity="0"/>
</radialGradient>
<linearGradient id="paint16_linear_6990_5054" x1="13.7667" y1="20.6941" x2="16.9929" y2="14.903" gradientUnits="userSpaceOnUse">
<stop offset="0.634677" stop-color="#D3ADEF"/>
<stop offset="0.833337" stop-color="#D3ADEF" stop-opacity="0"/>
</linearGradient>
<radialGradient id="paint17_radial_6990_5054" cx="0" cy="0" r="1" gradientUnits="userSpaceOnUse" gradientTransform="translate(16.1484 17.1406) rotate(57.3997) scale(0.797526 27.2274)">
<stop stop-color="#D3ADEF"/>
<stop offset="1" stop-color="#D3ADEF" stop-opacity="0"/>
</radialGradient>
<linearGradient id="paint18_linear_6990_5054" x1="2" y1="12.0158" x2="10.3125" y2="12.0158" gradientUnits="userSpaceOnUse">
<stop stop-color="#D6BABD" stop-opacity="0.3"/>
<stop offset="1" stop-color="#DCC9DD" stop-opacity="0"/>
</linearGradient>
<radialGradient id="paint19_radial_6990_5054" cx="0" cy="0" r="1" gradientUnits="userSpaceOnUse" gradientTransform="translate(13.1563 16.018) rotate(43.6483) scale(8.03286 4.85622)">
<stop offset="0.668625" stop-color="#8C738B"/>
<stop offset="1" stop-color="#BF9DBD" stop-opacity="0"/>
</radialGradient>
<radialGradient id="paint20_radial_6990_5054" cx="0" cy="0" r="1" gradientUnits="userSpaceOnUse" gradientTransform="translate(15.406 4.3453) rotate(88.5481) scale(18.3392 18.8849)">
<stop stop-color="#F12E52"/>
<stop offset="0.67675" stop-color="#FF3B79"/>
<stop offset="1" stop-color="#FF4EC6"/>
</radialGradient>
<radialGradient id="paint21_radial_6990_5054" cx="0" cy="0" r="1" gradientUnits="userSpaceOnUse" gradientTransform="translate(19.9394 12.5975) rotate(142.986) scale(14.9408 27.9856)">
<stop offset="0.483055" stop-color="#B91D43" stop-opacity="0"/>
<stop offset="0.833898" stop-color="#B91D43"/>
</radialGradient>
<radialGradient id="paint22_radial_6990_5054" cx="0" cy="0" r="1" gradientUnits="userSpaceOnUse" gradientTransform="translate(18.2143 16.258) rotate(-158.663) scale(12.9599 18.3206)">
<stop offset="0.40984" stop-color="#B91D43" stop-opacity="0"/>
<stop offset="0.833898" stop-color="#B91D43"/>
</radialGradient>
<radialGradient id="paint23_radial_6990_5054" cx="0" cy="0" r="1" gradientUnits="userSpaceOnUse" gradientTransform="translate(15.6868 13.9946) rotate(90) scale(11.2794 11.2794)">
<stop offset="0.671096" stop-color="#FF7AF2" stop-opacity="0"/>
<stop offset="0.933555" stop-color="#FFBCE6"/>
</radialGradient>
<linearGradient id="paint24_linear_6990_5054" x1="16.9317" y1="15.315" x2="21.4963" y2="20.7472" gradientUnits="userSpaceOnUse">
<stop offset="0.694491" stop-color="#FF7AF2" stop-opacity="0"/>
<stop offset="0.933555" stop-color="#FFBCE6"/>
</linearGradient>
<linearGradient id="paint25_linear_6990_5054" x1="16.3659" y1="15.5413" x2="11.0091" y2="21.5771" gradientUnits="userSpaceOnUse">
<stop offset="0.694491" stop-color="#FF7AF2" stop-opacity="0"/>
<stop offset="0.933555" stop-color="#FFBCE6"/>
</linearGradient>
<radialGradient id="paint26_radial_6990_5054" cx="0" cy="0" r="1" gradientUnits="userSpaceOnUse" gradientTransform="translate(17.2745 13.4706) rotate(164.618) scale(9.80698 10.357)">
<stop offset="0.802083" stop-color="#FF73A6" stop-opacity="0"/>
<stop offset="1" stop-color="#FF93BA" stop-opacity="0.6"/>
</radialGradient>
<radialGradient id="paint27_radial_6990_5054" cx="0" cy="0" r="1" gradientUnits="userSpaceOnUse" gradientTransform="translate(15.9621 11.1116) rotate(-90) scale(6.756 8.0497)">
<stop stop-color="#FC0D1A" stop-opacity="0.6"/>
<stop offset="0.802083" stop-color="#FC1020" stop-opacity="0"/>
</radialGradient>
<radialGradient id="paint28_radial_6990_5054" cx="0" cy="0" r="1" gradientTransform="matrix(-3.67652 4.50353 -3.27154 -2.06165 22.0653 11.4134)" gradientUnits="userSpaceOnUse">
<stop stop-color="#FF93BA" stop-opacity="0.5"/>
<stop offset="1" stop-color="#FF73A6" stop-opacity="0"/>
</radialGradient>
<radialGradient id="paint29_radial_6990_5054" cx="0" cy="0" r="1" gradientTransform="matrix(1.3165 1.34393 -0.780385 0.978205 14.4773 13.0216)" gradientUnits="userSpaceOnUse">
<stop stop-color="#FF93BA" stop-opacity="0.4"/>
<stop offset="1" stop-color="#FF73A6" stop-opacity="0"/>
</radialGradient>
<radialGradient id="paint30_radial_6990_5054" cx="0" cy="0" r="1" gradientUnits="userSpaceOnUse" gradientTransform="translate(19.9627 9.94979) rotate(176.279) scale(1.69033 1.09833)">
<stop stop-color="#FF93BA" stop-opacity="0.3"/>
<stop offset="1" stop-color="#FF73A6" stop-opacity="0"/>
</radialGradient>
<radialGradient id="paint31_radial_6990_5054" cx="0" cy="0" r="1" gradientUnits="userSpaceOnUse" gradientTransform="translate(11.8168 9.99093) rotate(1.07082) scale(1.46761 0.750869)">
<stop stop-color="#FF93BA" stop-opacity="0.3"/>
<stop offset="1" stop-color="#FF73A6" stop-opacity="0"/>
</radialGradient>
<radialGradient id="paint32_radial_6990_5054" cx="0" cy="0" r="1" gradientUnits="userSpaceOnUse" gradientTransform="translate(17.028 13.625) rotate(-90) scale(3.30497 1.20827)">
<stop stop-color="#FA1E3A" stop-opacity="0.7"/>
<stop offset="1" stop-color="#FA1E3A" stop-opacity="0"/>
</radialGradient>
<radialGradient id="paint33_radial_6990_5054" cx="0" cy="0" r="1" gradientUnits="userSpaceOnUse" gradientTransform="translate(20.4313 12.5935) rotate(-151.991) scale(3.62446)">
<stop stop-color="#FA1E3A" stop-opacity="0.7"/>
<stop offset="1" stop-color="#FA1E3A" stop-opacity="0"/>
</radialGradient>
</defs>
</svg>
