<svg width="32" height="32" viewBox="0 0 32 32" fill="none" xmlns="http://www.w3.org/2000/svg">
<path d="M14.5 30C20.8513 30 26 24.8513 26 18.5C26 12.1487 20.8513 7 14.5 7C8.14873 7 3 12.1487 3 18.5C3 24.8513 8.14873 30 14.5 30Z" fill="#D3D3D3"/>
<path d="M14.42 27.4999C9.24998 27.4999 5.03998 22.7999 5.03998 17.6299H23.8C23.8 22.7999 19.59 27.4999 14.42 27.4999Z" fill="#9B9B9B"/>
<path d="M21.4 12.38C19.68 10.46 17.19 9.25 14.42 9.25C11.65 9.25 9.14998 10.46 7.42998 12.38H5.03998V17.63C5.03998 22.8 9.24998 27.01 14.42 27.01C18.798 27.01 22.4876 23.991 23.5153 19.9267L24.5742 18.8867C24.5742 18.8867 23.7869 18.2351 23.7964 17.8906C23.7988 17.804 23.8 17.7171 23.8 17.63V12.38H21.4Z" fill="#E6E6E6"/>
<path d="M23.79 12.38C23.79 17.5604 19.5905 21.76 14.41 21.76C9.2296 21.76 5.03003 17.5604 5.03003 12.38C5.03003 7.19957 9.2296 3 14.41 3C18.0116 3 21.1391 5.02982 22.7109 8.00787C22.8133 8.00265 22.9163 8 23.0199 8C26.3199 8 28.9999 10.68 28.9999 13.98C28.9999 17.1144 26.5822 19.6894 23.5119 19.94C23.6799 19.2794 23.7777 18.5911 23.7966 17.8835C25.6178 17.52 26.9999 15.9044 26.9999 13.98C26.9999 11.9492 25.4694 10.2624 23.4927 10.0279C23.6868 10.7795 23.79 11.5677 23.79 12.38Z" fill="#F4F4F4"/>
<path d="M14.41 20.6698C18.9884 20.6698 22.7 16.9583 22.7 12.3798C22.7 7.8014 17.6651 5.08984 14.41 5.08984C11.6245 5.08984 6.12 7.8014 6.12 12.3798C6.12 16.9583 9.83155 20.6698 14.41 20.6698Z" fill="#7D4533"/>
<path d="M6.14041 12.9662C6.44107 9.86678 10.0286 6.08984 14.41 6.08984C18.7899 6.08984 22.3765 9.91731 22.6793 12.97C22.693 12.775 22.7 12.5783 22.7 12.3798C22.7 7.8014 18.9884 4.08984 14.41 4.08984C9.83155 4.08984 6.12 7.8014 6.12 12.3798C6.12 12.577 6.12688 12.7725 6.14041 12.9662Z" fill="#9B9B9B"/>
</svg>
